<?xml version="1.0" standalone="no"?>
<!DOCTYPE svg PUBLIC "-//W3C//DTD SVG 20010904//EN"
 "http://www.w3.org/TR/2001/REC-SVG-20010904/DTD/svg10.dtd">
<svg version="1.0" xmlns="http://www.w3.org/2000/svg"
 width="24.000000pt" height="24.000000pt" viewBox="0 0 24.000000 24.000000"
 preserveAspectRatio="xMidYMid meet">

<g transform="translate(0.000000,24.000000) scale(0.100000,-0.100000)"
fill="#000000" stroke="none">
<path d="M36 204 c-22 -22 -22 -146 0 -168 22 -22 146 -22 168 0 12 11 16 35
16 84 0 90 -10 100 -100 100 -49 0 -73 -4 -84 -16z m44 -13 c15 -28 13 -31
-20 -31 -31 0 -39 17 -18 38 17 17 26 15 38 -7z m68 -6 c11 -23 10 -25 -12
-25 -14 0 -30 10 -40 25 -16 25 -16 25 12 25 21 0 32 -7 40 -25z m50 13 c18
-18 14 -38 -8 -38 -16 0 -40 26 -40 44 0 11 36 6 48 -6z m12 -96 c0 -26 -5
-53 -12 -60 -16 -16 -140 -16 -156 0 -7 7 -12 34 -12 60 l0 48 90 0 90 0 0
-48z"/>
<path d="M97 123 c-4 -3 -7 -19 -7 -35 0 -33 17 -36 50 -10 l23 19 -24 16
c-26 19 -32 20 -42 10z m36 -18 c18 -13 18 -14 -2 -24 -28 -15 -31 -14 -31 14
0 28 7 30 33 10z"/>
</g>
</svg>
